PathFileType  4	(X/Y/Z)
DataRate	CameraRate	NumFrames	NumMarkers	Units	OrigDataRate	OrigDataStartFrame	OrigNumFrames
  200.0 	  200.0 	   6 	     50 	mm 	  200.0 	      904 	   1204
Frame#	Time	R.Shoulder			R.Clavicle			R.Bicep			R.Elbow			R.Forearm			R.Wrist			L.Shoulder			L.Clavicle			L.Scapula			L.Bicep			L.Elbow			L.Forearm			L.Wrist			R.ASIS			R.PSIS			S2			L.PSIS			L.ASIS			R.TH1			R.TH2			R.TH3			R.Knee			R.SH1			R.SH2			R.SH3			R.SH4			R.Ankle			R.Heel			R.MT5			L.TH1			L.TH2			L.TH3			L.TH4			L.Knee			L.SH1			L.SH2			L.SH3			L.Ankle			L.Heel			L.MT5			R.Melb			R.GTR			R.Mkn			R.Man			R.MT0			L.Melb			L.GTR			L.Mkn			L.Man			L.MT0			
		X1	Y1	Z1	X2	Y2	Z2	X3	Y3	Z3	X4	Y4	Z4	X5	Y5	Z5	X6	Y6	Z6	X7	Y7	Z7	X8	Y8	Z8	X9	Y9	Z9	X10	Y10	Z10	X11	Y11	Z11	X12	Y12	Z12	X13	Y13	Z13	X14	Y14	Z14	X15	Y15	Z15	X16	Y16	Z16	X17	Y17	Z17	X18	Y18	Z18	X19	Y19	Z19	X20	Y20	Z20	X21	Y21	Z21	X22	Y22	Z22	X23	Y23	Z23	X24	Y24	Z24	X25	Y25	Z25	X26	Y26	Z26	X27	Y27	Z27	X28	Y28	Z28	X29	Y29	Z29	X30	Y30	Z30	X31	Y31	Z31	X32	Y32	Z32	X33	Y33	Z33	X34	Y34	Z34	X35	Y35	Z35	X36	Y36	Z36	X37	Y37	Z37	X38	Y38	Z38	X39	Y39	Z39	X40	Y40	Z40	X41	Y41	Z41	X42	Y42	Z42	X43	Y43	Z43	X44	Y44	Z44	X45	Y45	Z45	X46	Y46	Z46	X47	Y47	Z47	X48	Y48	Z48	X49	Y49	Z49	X50	Y50	Z50	

904	4.51500	535.279	1605.226	-1930.419	615.411	1599.817	-2080.686	585.852	1396.489	-1882.986	468.559	1304.914	-1850.913	549.463	1246.715	-1762.975	502.967	1132.323	-1731.110	567.752	1610.004	-2306.368	625.572	1600.205	-2137.488	443.776	1575.603	-2214.030	613.765	1454.754	-2354.047	518.466	1316.648	-2411.982	583.926	1254.444	-2480.032	548.942	1136.245	-2504.249	658.519	1151.404	-1986.557	427.725	1226.945	-2068.132	418.512	1221.136	-2120.539	432.270	1229.061	-2174.018	656.411	1140.427	-2242.494	596.136	945.389	-1905.843	445.193	958.667	-1935.827	441.715	883.887	-1942.656	494.595	736.498	-1913.210	518.328	603.888	-1882.411	519.104	529.437	-1887.737	410.006	610.065	-1929.153	407.818	534.093	-1924.704	481.916	333.120	-1893.882	416.012	299.443	-1943.591	601.377	276.179	-1863.834	599.812	907.723	-2312.081	603.236	826.434	-2298.892	451.702	908.169	-2306.232	446.221	831.848	-2300.688	497.643	727.248	-2312.673	540.083	641.622	-2334.002	428.555	642.347	-2319.807	423.609	566.419	-2335.855	505.334	338.233	-2357.565	421.694	297.052	-2325.683	604.815	278.597	-2384.145	540.335	1274.034	-1922.529	536.578	1094.272	-1892.422	511.196	693.821	-2077.443	506.429	337.153	-1984.791	618.403	279.289	-1978.564	593.280	1271.740	-2320.270	526.095	1112.295	-2324.174	495.461	694.171	-2146.531	511.367	333.919	-2261.800	624.126	279.322	-2261.462
905	4.52000	535.308	1605.240	-1930.421	615.415	1599.811	-2080.683	585.853	1396.502	-1882.975	468.572	1304.878	-1850.839	549.460	1246.742	-1762.954	502.966	1132.336	-1731.101	567.743	1610.005	-2306.352	625.573	1600.203	-2137.481	443.786	1575.602	-2214.027	613.773	1454.746	-2354.034	518.469	1316.646	-2411.980	583.964	1254.441	-2479.996	548.924	1136.279	-2504.275	658.524	1151.401	-1986.555	427.749	1226.944	-2068.105	418.537	1221.123	-2120.532	432.284	1229.047	-2174.014	656.409	1140.434	-2242.490	596.140	945.386	-1905.842	445.192	958.672	-1935.790	441.712	883.887	-1942.644	494.589	736.502	-1913.199	518.326	603.891	-1882.415	519.105	529.435	-1887.739	410.005	610.065	-1929.150	407.809	534.098	-1924.702	481.918	333.120	-1893.882	416.011	299.442	-1943.593	601.377	276.180	-1863.830	599.820	907.725	-2312.076	603.235	826.433	-2298.890	451.701	908.173	-2306.232	446.220	831.854	-2300.673	497.646	727.249	-2312.672	540.086	641.626	-2334.000	428.556	642.348	-2319.808	423.617	566.424	-2335.855	505.338	338.228	-2357.554	421.695	297.053	-2325.685	604.816	278.597	-2384.144	540.489	1274.034	-1922.342	536.589	1094.273	-1892.422	511.165	693.828	-2077.434	506.427	337.152	-1984.791	618.397	279.289	-1978.563	593.336	1271.705	-2320.254	526.120	1112.294	-2324.142	495.495	694.166	-2146.487	511.368	333.919	-2261.800	624.125	279.319	-2261.466
906	4.52500	535.339	1605.254	-1930.424	615.420	1599.806	-2080.681	585.854	1396.516	-1882.963	468.584	1304.845	-1850.771	549.454	1246.771	-1762.932	502.965	1132.350	-1731.092	567.734	1610.006	-2306.337	625.575	1600.202	-2137.475	443.794	1575.600	-2214.025	613.779	1454.740	-2354.023	518.470	1316.644	-2411.980	583.999	1254.439	-2479.970	548.912	1136.302	-2504.297	658.529	1151.399	-1986.553	427.777	1226.942	-2068.076	418.565	1221.111	-2120.527	432.302	1229.029	-2174.009	656.408	1140.440	-2242.487	596.148	945.382	-1905.842	445.192	958.677	-1935.748	441.710	883.887	-1942.631	494.583	736.506	-1913.188	518.324	603.893	-1882.419	519.107	529.432	-1887.741	410.004	610.066	-1929.145	407.801	534.103	-1924.698	481.919	333.120	-1893.882	416.011	299.442	-1943.594	601.377	276.181	-1863.826	599.829	907.727	-2312.071	603.234	826.432	-2298.887	451.701	908.178	-2306.231	446.220	831.862	-2300.657	497.648	727.250	-2312.671	540.088	641.630	-2333.998	428.557	642.348	-2319.810	423.625	566.430	-2335.854	505.342	338.224	-2357.543	421.696	297.054	-2325.687	604.817	278.597	-2384.145	540.639	1274.036	-1922.165	536.604	1094.273	-1892.420	511.134	693.835	-2077.425	506.424	337.151	-1984.791	618.392	279.288	-1978.562	593.394	1271.673	-2320.236	526.146	1112.292	-2324.106	495.516	694.161	-2146.454	511.368	333.918	-2261.799	624.124	279.316	-2261.470
907	4.53000	535.372	1605.267	-1930.427	615.428	1599.801	-2080.679	585.854	1396.529	-1882.951	468.597	1304.814	-1850.711	549.447	1246.802	-1762.908	502.964	1132.364	-1731.083	567.726	1610.007	-2306.324	625.576	1600.201	-2137.469	443.800	1575.599	-2214.023	613.785	1454.735	-2354.013	518.471	1316.641	-2411.982	584.031	1254.439	-2479.952	548.906	1136.315	-2504.314	658.534	1151.397	-1986.551	427.806	1226.939	-2068.043	418.597	1221.100	-2120.523	432.324	1229.007	-2174.002	656.407	1140.444	-2242.484	596.159	945.378	-1905.842	445.193	958.683	-1935.702	441.710	883.888	-1942.619	494.577	736.510	-1913.177	518.322	603.895	-1882.423	519.111	529.430	-1887.744	410.002	610.068	-1929.139	407.796	534.110	-1924.695	481.921	333.120	-1893.882	416.011	299.441	-1943.596	601.378	276.182	-1863.822	599.838	907.729	-2312.064	603.232	826.431	-2298.885	451.700	908.183	-2306.228	446.220	831.870	-2300.641	497.651	727.251	-2312.670	540.090	641.633	-2333.997	428.557	642.349	-2319.811	423.633	566.435	-2335.854	505.346	338.219	-2357.531	421.696	297.055	-2325.690	604.818	278.596	-2384.145	540.783	1274.040	-1922.000	536.623	1094.274	-1892.419	511.102	693.842	-2077.415	506.423	337.150	-1984.790	618.387	279.287	-1978.560	593.454	1271.643	-2320.215	526.173	1112.291	-2324.067	495.524	694.156	-2146.430	511.369	333.918	-2261.797	624.123	279.312	-2261.474
908	4.53500	535.409	1605.280	-1930.430	615.438	1599.797	-2080.679	585.853	1396.544	-1882.939	468.608	1304.788	-1850.659	549.439	1246.835	-1762.883	502.963	1132.379	-1731.071	567.718	1610.007	-2306.312	625.578	1600.202	-2137.465	443.804	1575.597	-2214.021	613.790	1454.731	-2354.004	518.471	1316.638	-2411.985	584.058	1254.442	-2479.943	548.908	1136.316	-2504.324	658.539	1151.394	-1986.550	427.837	1226.937	-2068.008	418.633	1221.091	-2120.522	432.350	1228.981	-2173.994	656.407	1140.447	-2242.481	596.173	945.375	-1905.841	445.194	958.689	-1935.653	441.712	883.888	-1942.607	494.571	736.513	-1913.166	518.320	603.898	-1882.427	519.117	529.428	-1887.747	410.001	610.070	-1929.132	407.793	534.116	-1924.690	481.922	333.120	-1893.882	416.010	299.441	-1943.597	601.379	276.182	-1863.818	599.849	907.729	-2312.058	603.231	826.429	-2298.883	451.699	908.190	-2306.222	446.222	831.880	-2300.623	497.653	727.252	-2312.668	540.093	641.637	-2333.995	428.559	642.350	-2319.813	423.641	566.441	-2335.853	505.350	338.214	-2357.520	421.696	297.056	-2325.693	604.818	278.596	-2384.146	540.918	1274.047	-1921.848	536.645	1094.276	-1892.416	511.069	693.847	-2077.405	506.421	337.149	-1984.790	618.383	279.286	-1978.559	593.515	1271.616	-2320.194	526.201	1112.289	-2324.025	495.522	694.150	-2146.415	511.371	333.917	-2261.794	624.121	279.308	-2261.478
909	4.54000	535.447	1605.293	-1930.433	615.451	1599.792	-2080.679	585.853	1396.558	-1882.927	468.619	1304.766	-1850.615	549.430	1246.870	-1762.855	502.961	1132.395	-1731.059	567.710	1610.008	-2306.302	625.580	1600.203	-2137.461	443.806	1575.595	-2214.020	613.795	1454.728	-2353.997	518.470	1316.635	-2411.990	584.081	1254.446	-2479.944	548.918	1136.306	-2504.328	658.543	1151.391	-1986.548	427.870	1226.935	-2067.971	418.672	1221.082	-2120.524	432.380	1228.951	-2173.984	656.408	1140.448	-2242.479	596.189	945.371	-1905.841	445.196	958.696	-1935.602	441.715	883.887	-1942.595	494.566	736.516	-1913.156	518.319	603.900	-1882.430	519.124	529.425	-1887.750	409.999	610.072	-1929.124	407.792	534.124	-1924.686	481.924	333.120	-1893.882	416.010	299.440	-1943.599	601.381	276.182	-1863.815	599.861	907.728	-2312.050	603.229	826.428	-2298.880	451.698	908.196	-2306.214	446.224	831.890	-2300.604	497.656	727.253	-2312.666	540.095	641.641	-2333.993	428.560	642.352	-2319.815	423.648	566.447	-2335.852	505.354	338.209	-2357.508	421.695	297.057	-2325.696	604.819	278.595	-2384.147	541.044	1274.057	-1921.710	536.671	1094.278	-1892.412	511.037	693.852	-2077.395	506.420	337.148	-1984.790	618.379	279.286	-1978.558	593.574	1271.592	-2320.171	526.230	1112.287	-2323.980	495.508	694.144	-2146.409	511.372	333.915	-2261.791	624.119	279.304	-2261.482
